<svg width="185" height="56" fill="none" xmlns="http://www.w3.org/2000/svg"><path d="M54.675 12.182V25h-3.332V12.182h3.332zm2.389 4.097h3.077v1.105c.42-.51.844-.85 1.275-1.02.43-.181.935-.272 1.513-.272.612 0 1.133.102 1.564.306.442.193.816.47 1.122.833.25.295.42.623.51.986.09.363.136.776.136 1.241V25h-3.077v-4.403c0-.43-.034-.776-.102-1.037a1.257 1.257 0 00-.323-.646 1.166 1.166 0 00-.46-.289 1.709 1.709 0 00-.543-.085c-.522 0-.924.159-1.207.476-.272.306-.408.748-.408 1.326V25h-3.077v-8.721zm11.289 0h3.077v1.105c.42-.51.844-.85 1.275-1.02.43-.181.935-.272 1.513-.272.612 0 1.133.102 1.564.306.442.193.816.47 1.122.833.25.295.42.623.51.986.09.363.136.776.136 1.241V25h-3.077v-4.403c0-.43-.034-.776-.102-1.037-.057-.272-.164-.487-.323-.646a1.166 1.166 0 00-.46-.289 1.708 1.708 0 00-.543-.085c-.522 0-.924.159-1.207.476-.272.306-.408.748-.408 1.326V25h-3.077v-8.721zm14.196 4.318c0 .295.05.567.153.816.113.238.255.448.425.629.181.181.39.323.629.425a2.046 2.046 0 001.547 0c.25-.102.459-.244.629-.425a1.99 1.99 0 00.425-.629c.113-.25.17-.516.17-.799 0-.272-.057-.527-.17-.765a1.943 1.943 0 00-.425-.646 1.765 1.765 0 00-.63-.425 2.046 2.046 0 00-1.547 0 1.99 1.99 0 00-.628.425c-.17.181-.312.391-.425.629a1.921 1.921 0 00-.153.765zm-3.247-.034c0-.646.13-1.247.39-1.802a4.333 4.333 0 011.089-1.462 5.11 5.11 0 011.649-.986 6.053 6.053 0 012.108-.357c.748 0 1.44.119 2.074.357.646.227 1.201.55 1.666.969.476.408.844.901 1.105 1.479.26.567.39 1.196.39 1.887 0 .691-.135 1.326-.407 1.904a4.512 4.512 0 01-1.088 1.479 4.976 4.976 0 01-1.683.952 6.325 6.325 0 01-2.108.34c-.748 0-1.44-.113-2.074-.34a4.88 4.88 0 01-1.65-.969 4.578 4.578 0 01-1.07-1.496 4.78 4.78 0 01-.391-1.955zm21.642-8.381v9.996h3.995V25h-7.327V12.182h3.332zm8.503 4.097V25h-3.077v-8.721h3.077zm-3.281-3.349c0-.238.046-.459.136-.663a1.755 1.755 0 01.918-.935 1.736 1.736 0 012.278.935 1.729 1.729 0 010 1.343 1.776 1.776 0 01-.935.918 1.736 1.736 0 01-1.343 0 1.797 1.797 0 01-.918-.918 1.746 1.746 0 01-.136-.68zm5.384 3.349h3.077v1.105c.419-.51.844-.85 1.275-1.02.431-.181.935-.272 1.513-.272.612 0 1.133.102 1.564.306.442.193.816.47 1.122.833.249.295.419.623.51.986.091.363.136.776.136 1.241V25h-3.077v-4.403c0-.43-.034-.776-.102-1.037-.057-.272-.164-.487-.323-.646a1.166 1.166 0 00-.459-.289 1.707 1.707 0 00-.544-.085c-.521 0-.924.159-1.207.476-.272.306-.408.748-.408 1.326V25h-3.077v-8.721zm14.145 4.318c0 .283.051.55.153.799.102.238.238.448.408.629.182.181.391.323.629.425.25.102.516.153.799.153.272 0 .527-.051.765-.153.25-.102.459-.244.629-.425.182-.181.323-.391.425-.629.113-.25.17-.51.17-.782a1.8 1.8 0 00-.17-.782 1.943 1.943 0 00-1.071-1.054 1.878 1.878 0 00-.748-.153c-.272 0-.527.057-.765.17a1.986 1.986 0 00-.629.425c-.181.17-.329.374-.442.612a1.921 1.921 0 00-.153.765zm6.902-4.318v8.126c0 .487-.028.924-.085 1.309a5.672 5.672 0 01-.238 1.02c-.136.374-.351.72-.646 1.037a4.038 4.038 0 01-1.037.85 5.521 5.521 0 01-1.394.561 6.45 6.45 0 01-1.666.204 6.49 6.49 0 01-1.87-.255 5.093 5.093 0 01-1.496-.714 3.99 3.99 0 01-1.037-1.054 3.427 3.427 0 01-.544-1.309h3.468c.216.578.703.867 1.462.867.646 0 1.139-.181 1.479-.544.352-.363.527-.867.527-1.513v-.833a5.302 5.302 0 01-.663.544c-.204.136-.413.25-.629.34a2.74 2.74 0 01-.68.187 4.192 4.192 0 01-.782.068 4.46 4.46 0 01-1.717-.323 4.142 4.142 0 01-1.36-.901 4.22 4.22 0 01-.884-1.377 5.096 5.096 0 01-.306-1.802c0-.669.114-1.286.34-1.853a4.756 4.756 0 01.918-1.496c.397-.43.861-.765 1.394-1.003a4.191 4.191 0 011.768-.374c1.031 0 1.899.385 2.601 1.156v-.918h3.077zm4.676 0l2.074 4.471 2.108-4.471h3.434L140.35 25h-2.057l-4.488-8.721h3.468zm11.134 4.318c0 .295.051.567.153.816.114.238.255.448.425.629.182.181.391.323.629.425a2.048 2.048 0 001.547 0c.25-.102.459-.244.629-.425.182-.181.323-.391.425-.629.114-.25.17-.516.17-.799 0-.272-.056-.527-.17-.765a1.932 1.932 0 00-.425-.646 1.758 1.758 0 00-.629-.425 2.048 2.048 0 00-1.547 0 1.997 1.997 0 00-.629.425c-.17.181-.311.391-.425.629a1.921 1.921 0 00-.153.765zm-3.247-.034c0-.646.131-1.247.391-1.802a4.346 4.346 0 011.088-1.462 5.12 5.12 0 011.649-.986 6.054 6.054 0 012.108-.357c.748 0 1.44.119 2.074.357.646.227 1.202.55 1.666.969.476.408.845.901 1.105 1.479a4.46 4.46 0 01.391 1.887c0 .691-.136 1.326-.408 1.904a4.498 4.498 0 01-1.088 1.479 4.963 4.963 0 01-1.683.952 6.322 6.322 0 01-2.108.34 6.125 6.125 0 01-2.074-.34 4.89 4.89 0 01-1.649-.969 4.587 4.587 0 01-1.071-1.496 4.791 4.791 0 01-.391-1.955zm-92.014 9.583c1.027 0 1.775.202 2.244.605.47.403.704.972.704 1.705 0 .433-.1.84-.297 1.221-.19.374-.517.678-.98.913-.454.235-1.073.352-1.858.352h-.902V38h-.99v-7.854h2.079zm-.088.847h-1.001v3.102h.792c.748 0 1.305-.121 1.672-.363s.55-.653.55-1.232c0-.506-.161-.884-.484-1.133-.323-.25-.832-.374-1.53-.374zm6.77 1.012c.719 0 1.25.158 1.595.473.345.315.517.818.517 1.507V38h-.704l-.187-.836h-.044c-.257.323-.528.561-.814.715-.279.154-.667.231-1.166.231-.535 0-.979-.14-1.33-.418-.353-.286-.529-.73-.529-1.331 0-.587.231-1.038.693-1.353.462-.323 1.173-.499 2.134-.528l1.001-.033v-.352c0-.491-.106-.832-.319-1.023-.213-.19-.513-.286-.902-.286a2.7 2.7 0 00-.88.143c-.279.088-.539.19-.78.308l-.298-.726c.257-.14.561-.257.913-.352a3.907 3.907 0 011.1-.154zm.286 3.146c-.733.03-1.243.147-1.529.352-.279.205-.418.495-.418.869 0 .33.1.572.297.726.205.154.466.231.781.231.499 0 .913-.136 1.243-.407.33-.279.495-.704.495-1.276v-.528l-.869.033zm5.198-3.157c.675 0 1.21.136 1.606.407.403.264.605.645.605 1.144 0 .36-.099.645-.297.858-.198.205-.47.356-.814.451v.044c.235.066.451.158.65.275.197.117.355.271.472.462.125.19.187.436.187.737 0 .491-.205.906-.616 1.243-.403.33-1.038.495-1.903.495-.425 0-.81-.037-1.155-.11a3.191 3.191 0 01-.858-.275v-.869c.25.117.543.224.88.319.345.095.719.143 1.122.143.44 0 .81-.073 1.111-.22.308-.154.462-.414.462-.781 0-.66-.56-.99-1.683-.99h-.792v-.792h.638c.506 0 .91-.066 1.21-.198.308-.14.462-.374.462-.704a.683.683 0 00-.352-.627c-.227-.14-.557-.209-.99-.209-.323 0-.609.033-.858.099a5.23 5.23 0 00-.803.275l-.34-.77c.615-.271 1.3-.407 2.056-.407zm8.583 1.595c0 .367-.11.653-.33.858-.22.205-.503.345-.847.418v.044c.366.051.685.183.957.396.271.205.407.528.407.968 0 .499-.187.913-.561 1.243-.367.323-.976.484-1.826.484h-2.541v-5.896h2.53c.418 0 .792.048 1.122.143.337.088.601.242.792.462.198.213.297.506.297.88zm-.98.121c0-.279-.102-.48-.307-.605-.198-.132-.525-.198-.98-.198h-1.506v1.617h1.33c.976 0 1.464-.271 1.464-.814zm.166 2.563c0-.337-.129-.58-.385-.726-.257-.147-.635-.22-1.133-.22h-1.441v1.892h1.463c.484 0 .854-.07 1.11-.209.257-.147.386-.392.386-.737zm3.323-.572a12.633 12.633 0 01-.044.924c-.007.176-.014.315-.022.418l3.158-4.939h1.188V38h-.903v-3.938l.022-.561c.008-.19.015-.334.023-.429L76.69 38h-1.2v-5.896h.913v3.597zm10.897-2.112c0 .367-.11.653-.33.858-.22.205-.502.345-.847.418v.044c.367.051.686.183.957.396.271.205.407.528.407.968 0 .499-.187.913-.561 1.243-.367.323-.975.484-1.826.484H82.56v-5.896h2.53c.418 0 .792.048 1.122.143.337.088.601.242.792.462.198.213.297.506.297.88zm-.98.121c0-.279-.102-.48-.307-.605-.198-.132-.524-.198-.98-.198h-1.506v1.617h1.33c.976 0 1.464-.271 1.464-.814zm.166 2.563c0-.337-.128-.58-.385-.726-.257-.147-.634-.22-1.133-.22h-1.441v1.892h1.463c.484 0 .854-.07 1.11-.209.258-.147.386-.392.386-.737zm4.644-4.268c.719 0 1.25.158 1.595.473.344.315.517.818.517 1.507V38h-.704l-.187-.836h-.044c-.257.323-.528.561-.814.715-.279.154-.668.231-1.166.231-.535 0-.98-.14-1.331-.418-.352-.286-.528-.73-.528-1.331 0-.587.23-1.038.693-1.353.462-.323 1.173-.499 2.134-.528l1-.033v-.352c0-.491-.106-.832-.318-1.023-.213-.19-.513-.286-.902-.286a2.7 2.7 0 00-.88.143 5.62 5.62 0 00-.781.308l-.297-.726c.257-.14.56-.257.913-.352a3.907 3.907 0 011.1-.154zm.286 3.146c-.734.03-1.243.147-1.53.352-.278.205-.417.495-.417.869 0 .33.099.572.297.726.205.154.466.231.78.231.5 0 .914-.136 1.244-.407.33-.279.495-.704.495-1.276v-.528l-.87.033zm5.924-3.157c.506 0 .939.11 1.298.33.367.22.645.532.836.935.198.396.297.862.297 1.397v.583h-4.037c.014.667.183 1.177.506 1.529.33.345.788.517 1.375.517.374 0 .704-.033.99-.099.293-.073.594-.176.902-.308v.847c-.3.132-.598.227-.891.286a4.816 4.816 0 01-1.045.099c-.558 0-1.053-.114-1.485-.341a2.422 2.422 0 01-1.001-1.012c-.235-.455-.352-1.008-.352-1.661 0-.645.106-1.199.319-1.661.22-.462.524-.818.913-1.067.396-.25.854-.374 1.375-.374zm-.011.792c-.462 0-.829.15-1.1.451-.264.293-.422.704-.473 1.232h3.003c-.008-.499-.125-.902-.352-1.21-.228-.315-.587-.473-1.078-.473zm10.268-.682V38h-.869v-3.762c0-.154.003-.315.011-.484.014-.169.029-.334.044-.495h-.033L104.826 38h-.814l-1.87-4.741h-.033c.022.33.033.667.033 1.012V38h-.869v-5.896h1.287l1.859 4.741 1.892-4.741h1.287zm8.081-.11c.726 0 1.309.253 1.749.759.448.506.672 1.269.672 2.288 0 1.005-.224 1.767-.672 2.288-.44.52-1.026.781-1.759.781-.455 0-.833-.084-1.134-.253a2.364 2.364 0 01-.693-.605h-.065c.014.125.029.282.043.473.015.19.022.356.022.495v2.42h-.967v-8.536h.792l.132.803h.043c.176-.257.407-.473.693-.649.286-.176.668-.264 1.144-.264zm-.175.814c-.602 0-1.027.169-1.276.506-.242.337-.371.85-.386 1.54v.187c0 .726.118 1.287.352 1.683.242.389.686.583 1.331.583.36 0 .653-.099.881-.297.234-.198.407-.466.517-.803.117-.345.176-.737.176-1.177 0-.675-.133-1.214-.397-1.617-.256-.403-.656-.605-1.198-.605zm3.107-.704h1.034l1.276 3.355c.11.293.209.576.297.847.088.264.154.517.198.759h.044c.044-.183.113-.422.209-.715.095-.3.194-.601.297-.902l1.199-3.344h1.045l-2.541 6.71c-.206.557-.473 1.001-.803 1.331-.323.33-.77.495-1.342.495-.176 0-.33-.011-.462-.033a3.02 3.02 0 01-.341-.055v-.77a5 5 0 00.286.044c.117.015.238.022.363.022.337 0 .608-.095.814-.286.212-.19.377-.444.495-.759l.308-.781-2.376-5.918zm8.896 6.006a2.99 2.99 0 01-1.397-.319c-.403-.213-.722-.543-.957-.99-.227-.447-.341-1.02-.341-1.716 0-.726.121-1.316.363-1.771.242-.455.568-.788.979-1.001a3.084 3.084 0 011.419-.319c.301 0 .59.033.869.099.279.059.506.132.682.22l-.297.803a5.708 5.708 0 00-.616-.187 2.73 2.73 0 00-.66-.088c-1.159 0-1.738.744-1.738 2.233 0 .711.139 1.258.418 1.639.286.374.708.561 1.265.561.323 0 .605-.033.847-.099.249-.066.477-.147.682-.242v.858c-.198.103-.418.18-.66.231a3.592 3.592 0 01-.858.088zm5.285 0a2.99 2.99 0 01-1.397-.319c-.403-.213-.722-.543-.957-.99-.227-.447-.341-1.02-.341-1.716 0-.726.121-1.316.363-1.771.242-.455.569-.788.979-1.001a3.084 3.084 0 011.419-.319c.301 0 .591.033.869.099.279.059.506.132.682.22l-.297.803a5.708 5.708 0 00-.616-.187 2.725 2.725 0 00-.66-.088c-1.159 0-1.738.744-1.738 2.233 0 .711.139 1.258.418 1.639.286.374.708.561 1.265.561.323 0 .605-.033.847-.099.249-.066.477-.147.682-.242v.858c-.198.103-.418.18-.66.231a3.592 3.592 0 01-.858.088zm6.407-6.006h1.056l-2.519 2.838L140.464 38h-1.122l-2.662-2.992V38h-.968v-5.896h.968v2.86l2.519-2.86zm1.412 0h1.034l1.276 3.355c.11.293.209.576.297.847.088.264.154.517.198.759h.044c.044-.183.113-.422.209-.715.095-.3.194-.601.297-.902l1.199-3.344h1.045l-2.541 6.71c-.206.557-.473 1.001-.803 1.331-.323.33-.77.495-1.342.495-.176 0-.33-.011-.462-.033a3.02 3.02 0 01-.341-.055v-.77a5 5 0 00.286.044c.117.015.238.022.363.022.337 0 .608-.095.814-.286.212-.19.377-.444.495-.759l.308-.781-2.376-5.918zm14.187 2.937c0 .975-.235 1.73-.704 2.266-.469.535-1.104.803-1.903.803-.748 0-1.353-.235-1.815-.704-.455-.47-.711-1.148-.77-2.035h-1.496V38h-.968v-5.896h.968v2.453h1.507c.081-.829.348-1.463.803-1.903.455-.44 1.052-.66 1.793-.66.506 0 .953.121 1.342.363.389.235.693.58.913 1.034.22.447.33.997.33 1.65zm-4.202 0c0 .74.128 1.305.385 1.694.257.381.664.572 1.221.572.565 0 .972-.19 1.221-.572.249-.389.374-.953.374-1.694 0-.74-.128-1.298-.385-1.672-.249-.374-.653-.561-1.21-.561-.557 0-.964.187-1.221.561-.257.374-.385.931-.385 1.672zm11.941-3.047c.726 0 1.309.253 1.749.759.447.506.671 1.269.671 2.288 0 1.005-.224 1.767-.671 2.288-.44.52-1.027.781-1.76.781-.455 0-.832-.084-1.133-.253a2.364 2.364 0 01-.693-.605h-.066c.015.125.029.282.044.473.015.19.022.356.022.495v2.42h-.968v-8.536h.792l.132.803h.044c.176-.257.407-.473.693-.649.286-.176.667-.264 1.144-.264zm-.176.814c-.601 0-1.027.169-1.276.506-.242.337-.37.85-.385 1.54v.187c0 .726.117 1.287.352 1.683.242.389.686.583 1.331.583.359 0 .653-.099.88-.297.235-.198.407-.466.517-.803.117-.345.176-.737.176-1.177 0-.675-.132-1.214-.396-1.617-.257-.403-.656-.605-1.199-.605zm6.415-.814c.506 0 .939.11 1.298.33.367.22.646.532.836.935.198.396.297.862.297 1.397v.583h-4.037c.015.667.184 1.177.506 1.529.33.345.789.517 1.375.517.374 0 .704-.033.99-.099a5.94 5.94 0 00.902-.308v.847c-.3.132-.597.227-.891.286a4.81 4.81 0 01-1.045.099c-.557 0-1.052-.114-1.485-.341a2.424 2.424 0 01-1.001-1.012c-.234-.455-.352-1.008-.352-1.661 0-.645.107-1.199.319-1.661a2.52 2.52 0 01.913-1.067c.396-.25.855-.374 1.375-.374zm-.011.792c-.462 0-.828.15-1.1.451-.264.293-.421.704-.473 1.232h3.003c-.007-.499-.124-.902-.352-1.21-.227-.315-.586-.473-1.078-.473zm4.79 1.463c0 .675.378 1.012 1.133 1.012.367 0 .701-.055 1.001-.165.301-.117.609-.271.924-.462v-2.53h.968V38h-.968v-2.629a5.41 5.41 0 01-.979.506c-.315.117-.696.176-1.144.176-.601 0-1.07-.158-1.408-.473-.33-.315-.495-.737-.495-1.265v-2.211h.968v2.145zm8.617.275c1.532 0 2.299.557 2.299 1.672 0 .55-.187.99-.561 1.32-.374.323-.968.484-1.782.484h-2.673v-5.896h.968v2.42h1.749zm1.331 1.727c0-.36-.129-.601-.385-.726-.25-.132-.602-.198-1.056-.198h-1.639v1.892h1.661c.41 0 .748-.073 1.012-.22.271-.147.407-.396.407-.748z" fill="#fff"/><g filter="url(#filter0_d_110_243)"><path d="M28 42c9.941 0 18-8.059 18-18S37.941 6 28 6s-18 8.059-18 18 8.059 18 18 18z" fill="url(#paint0_linear_110_243)"/></g><defs><linearGradient id="paint0_linear_110_243" x1="28" y1="24" x2="28" y2="42" gradientUnits="userSpaceOnUse"><stop stop-color="#B467E9"/><stop offset="1" stop-color="#E967CC"/></linearGradient><filter id="filter0_d_110_243" x="0" y="0" width="56" height="56" filterUnits="userSpaceOnUse" color-interpolation-filters="sRGB"><feFlood flood-opacity="0" result="BackgroundImageFix"/><feColorMatrix in="SourceAlpha" values="0 0 0 0 0 0 0 0 0 0 0 0 0 0 0 0 0 0 127 0" result="hardAlpha"/><feOffset dy="4"/><feGaussianBlur stdDeviation="5"/><feComposite in2="hardAlpha" operator="out"/><feColorMatrix values="0 0 0 0 0 0 0 0 0 0 0 0 0 0 0 0 0 0 0.1 0"/><feBlend in2="BackgroundImageFix" result="effect1_dropShadow_110_243"/><feBlend in="SourceGraphic" in2="effect1_dropShadow_110_243" result="shape"/></filter></defs></svg>